<svg width="170" height="43" viewBox="0 0 170 43" fill="none" xmlns="http://www.w3.org/2000/svg">
<path fill-rule="evenodd" clip-rule="evenodd" d="M148.645 0C138.138 0 129.396 7.58208 127.579 17.5862C125.788 7.58208 117.046 0 106.513 0C105.671 0 104.854 0.0526533 104.038 0.15796V13.0054H111.042V17.5336H104.038V21.9301C104.038 26.432 107.698 30.0914 112.175 30.144V34.4353H111.121C104.723 34.4353 99.509 29.2226 99.509 22.8252V1.1847C91.7147 3.89635 85.9743 10.9519 85.2107 19.4554C84.21 8.55616 75.0465 0 63.908 0C52.7695 0 43.8429 8.31922 42.658 18.9815C41.4731 8.2929 32.4148 0 21.408 0C18.4588 0 15.6413 0.605513 13.0871 1.68491V11.768C15.2989 9.81984 18.2218 8.66147 21.408 8.66147C28.4387 8.66147 34.1264 14.3744 34.1264 21.4036C34.1264 28.4328 28.4387 34.1194 21.408 34.1194C14.3773 34.1194 9.1109 28.854 8.71592 22.1934V4.18594C3.42317 8.08228 0 14.348 0 21.3772C0 33.1716 9.58488 42.7545 21.3817 42.7545C32.3885 42.7545 41.4467 34.4353 42.6317 23.773C43.29 29.6701 46.3445 34.8565 50.8473 38.3053V21.1403C51.2686 14.4797 56.772 9.21433 63.5393 9.21433C70.3067 9.21433 76.2577 14.9009 76.2577 21.9301C76.2577 28.9593 70.57 34.6722 63.5393 34.6722C60.3532 34.6722 57.4303 33.4875 55.2184 31.5657V40.938C57.8516 42.1227 60.8008 42.7545 63.8817 42.7545C75.0465 42.7545 84.21 34.1983 85.1843 23.2991C86.1586 34.1983 95.3222 42.7545 106.487 42.7545C116.993 42.7545 125.736 35.1724 127.553 25.1683C128.527 30.6179 131.581 35.383 135.874 38.5422V21.114H135.9C136.321 14.4533 141.825 9.188 148.592 9.188C155.359 9.188 161.31 14.8746 161.31 21.9038C161.31 28.933 155.623 34.6459 148.592 34.6459C145.406 34.6459 142.483 33.4612 140.245 31.5393V41.0696C142.799 42.149 145.616 42.7545 148.592 42.7545C160.389 42.7545 170 33.1716 170 21.3772C170 9.5829 160.441 0 148.645 0ZM71.9129 21.9564C71.9129 26.5636 68.2001 30.2757 63.592 30.2757C58.9839 30.2757 55.2711 26.5373 55.2711 21.9564C55.2711 17.3756 59.0102 13.6372 63.592 13.6372C68.1738 13.6372 71.9129 17.3756 71.9129 21.9564ZM29.7289 21.3772C29.7289 25.9844 26.0161 29.6965 21.408 29.6965C16.7999 29.6965 13.0871 25.9844 13.0871 21.3772C13.0871 16.7701 16.7999 13.058 21.408 13.058C26.0161 13.058 29.7289 16.7701 29.7289 21.3772ZM156.966 21.9564C156.966 26.5636 153.253 30.2757 148.645 30.2757C144.037 30.2757 140.324 26.5373 140.324 21.9564C140.324 17.3756 144.037 13.6372 148.645 13.6372C153.253 13.6372 156.966 17.3756 156.966 21.9564Z" fill="black"/>
</svg>
