<?xml version="1.0" encoding="utf-8"?>

<svg version="1.1" id="Layer_1" xmlns="http://www.w3.org/2000/svg" xmlns:xlink="http://www.w3.org/1999/xlink" x="0px" y="0px"
	 viewBox="0 0 606.55 305.27" style="enable-background:new 0 0 606.55 305.27;" xml:space="preserve">
<style type="text/css">
	.st0{fill:#D50057;}
	.st1{fill:#8A8C8E;}
	.st2{fill:#FFFFFF;}
</style>
<g>
	<path class="st0" d="M378.96,80.22h-0.04c-5.44-15.94-17.83-21.24-18.79-21.6c0.62-3.92,0.66-8.3-0.2-13.05v-0.01l0,0
		c-3.77-3.24-7.65-5.41-11.39-6.87c0.28-2.04,1.5-14.66-8.68-26.96l-0.02,0.03c-16.39-3.22-27.14,4.98-27.87,5.59
		c-3.07-2.42-6.76-4.63-11.2-6.24h-0.02c-4.61,1.66-8.41,3.97-11.54,6.51c-1.55-1.24-11.8-8.66-27.51-5.9l0.03,0.03
		c-11.26,13.08-9.22,26.91-9.2,27.18c-3.63,1.44-7.37,3.61-11.04,6.73l0,0l0,0h-0.02h0.02c-0.88,4.93-0.81,9.44-0.18,13.47
		c-2.11,0.89-13.32,6.16-18.72,21.05h0.01c5.53,16.17,18.13,21.36,18.72,21.6c-0.59,3.94-0.63,8.28,0.25,13.03l0,0l0,0l0,0
		c3.83,3.28,7.74,5.46,11.54,6.93c-0.32,2.53-1.18,14.81,8.71,26.8l0.01-0.04c16.07,3.16,26.58-4.54,27.71-5.44
		c3.07,2.45,6.8,4.67,11.28,6.31h0.02c4.7-1.7,8.54-4.05,11.71-6.63c2.02,1.58,12.09,8.46,27.29,5.77h-0.02
		c10.82-12.59,9.36-25.7,9.18-26.96c3.66-1.48,7.38-3.6,11.03-6.73l0,0l0,0l0,0c0.88-4.94,0.78-9.48,0.12-13.52
		C362.07,100.51,373.49,95.28,378.96,80.22 M355.61,48.07c0.08,0.2,5.24,14.88-5.78,30.43c-5.3-12.35-16.61-15.91-17.76-16.23
		c-0.03-0.04-0.11-0.06-0.13-0.12c0.16-0.73,3.16-13-5.45-24.23C345.51,36,355.57,48,355.61,48.07 M286.5,96.77
		c4.58,1.15,8.45,0.51,9.25,0.34c1.24,1.48,2.91,3.02,5.12,4.48c0,0,2.82-1.44,5.08-4.41c1.56,0.21,5.55,0.59,9.98-0.79
		c-3.66,13.51-14.5,17.31-14.74,17.38l0,0C301.17,113.77,290.32,110.1,286.5,96.77 M270.49,99.15c8.15,6.7,17.73,5.67,17.73,5.67
		c-0.13-0.18-0.34-0.79-0.34-0.79c-9.17-0.31-15.71-7.03-15.77-7.04c-0.04-0.05-2.48-9.82,1.7-17.18c0,0-0.4-0.49-0.46-0.69
		c0,0-5.64,7.74-3.91,18.28c-12.64-5.75-14.66-16.97-14.71-17.06c0.04-0.04,2.07-11.34,14.81-17.08l0.13-0.89
		c-1.18,12.99,6.19,20.45,9.54,23.13c-0.54,2.28-0.77,4.81-0.4,7.48l0,0h0.04c2.24,1.81,4.61,2.9,6.88,3.57
		c0.49,3.83,2.76,14.02,13.97,19.78c-11.24,8.16-21.85,4.31-21.92,4.29C277.76,120.58,269.06,113.17,270.49,99.15L270.49,99.15z
		 M296.36,59.35c2.36-1.62,4.35-2.31,4.4-2.36c0.05,0.05,2.18,0.85,4.69,2.68h-0.02l0.1,0.01c2.26,1.67,4.88,4.21,6.45,7.76
		c-5.43-1.18-9.27,1.16-9.63,1.44c-4.16-2.76-8.87-2.59-12.49-1.78c1.58-3.58,4.12-6.04,6.37-7.65l0.17-0.08
		C296.4,59.37,296.39,59.37,296.36,59.35 M308.27,86.52c5.69-1.85,8.22-5.59,9.33-8.98c4.5,6.47,3,14.14,3,14.23
		c-0.08,0.05-6.3,5.23-14.08,4.62c1.62-2.49,2.71-5.84,1.72-10.11c0,0-0.7-2.38-2.58-4.09c0.24-0.49,0.38-0.82,0.38-0.82
		c2.81-7.31-2.81-11.85-2.81-11.85c-0.15-0.14-0.29-0.2-0.46-0.34l0.31,0.19c8.29-3.4,13.28,1.95,13.28,1.95
		c1.3,10.39-6.05,13.81-8.21,14.57L308.27,86.52z M280.78,86.45c0.3-3.14,1.26-7.06,3.89-10.27c1.8,6.84,6.73,9.71,7.33,10.03
		c-0.1,0.68-0.15,1.42-0.15,2.17c0,0-0.03,3.64,3.23,7.95l-0.05-0.06c-8.06,0.98-14.12-4.36-14.23-4.45
		c-0.02-0.05-0.31-2.23-0.03-5.2l0.01,0.03V86.45z M293.18,85.32c0,0,0.52-4.51,5.39-8.13l-0.04-0.82c0,0-5.27,2.89-6.45,9.34
		c-7.19-5.31-5.97-14.76-5.97-14.76c6.71-4.67,13.47-2.24,13.47-2.24c8.86,4.18,5.46,12.37,5.46,12.37c-0.72,1.83-1.54,2.3-1.54,2.3
		c-1.76,1.46-3.25,0.6-3.25,0.6c-1.54-0.85-1.38-2.2-1.38-2.2c0.09-2.11,1.66-1.97,1.66-1.97c0.66,0.06,0.74,0.42,0.74,0.42
		c0.25,0.63-0.38,0.75-0.38,0.75v0.37c0.46,0,0.72-0.49,0.72-0.49c0.42-1.05-0.46-1.43-0.46-1.43c-1.85-0.68-2.74,1.22-2.74,1.22
		c-0.73,1.32,0.05,2.81,0.05,2.81c1.57,2.79,4.64,1.41,4.64,1.41c0.97-0.56,1.65-1.37,2.11-2.03c0.16,0.1,4.86,3.78,0.38,11.96
		c-0.9,1.65-2.54,3.14-4.8,4.37C300.8,99.15,291.52,94.49,293.18,85.32 M288.76,67.41c-2.8,0.76-4.66,1.81-4.66,1.81
		c-0.16,2.17,0,4.1,0.3,5.77c-0.29,0.37-3.45,4.17-4.94,9.61c-9.08-9.82-7-20.71-6.98-20.95h0.06c0,0,8.36-7.48,21.44-4.46
		C290.46,62.74,289,66.62,288.76,67.41 M270.43,61.5c-1.38-13.97,7.26-21.35,7.26-21.35c0.15-0.03,10.77-3.88,21.99,4.32
		c-8.65,3.39-12.67,10.73-13.43,12.31C281.73,56.59,276.16,57.57,270.43,61.5 M316.68,96.14c1.94-0.66,3.97-1.71,5.87-3.23h0.02l0,0
		c0.38-2.52,0.2-4.86-0.17-6.97c1.33-1.06,3.47-3.01,5.48-5.89c3.98,8,1.56,16.78,1.54,16.82c-0.03,0.01-6.79,6.68-14.92,7.07
		C316,100.62,316.52,97.69,316.68,96.14 M322.18,85.09c-1.09-4.48-3.37-7.67-4.27-8.72c0.78-3.26,0.37-5.96,0.37-5.96
		c-1.83-1.35-3.66-2.2-5.31-2.69c-0.1-0.3-1.49-4.45-5.16-8.25c12.98-3.03,21.33,4.26,21.49,4.41h-0.02
		C329.28,63.89,331.58,75.11,322.18,85.09 M307.21,58.83c-1.7-1.58-3.79-3.11-6.45-4.13v-0.01v0.01v-0.01v0.01
		c-2.48,0.98-4.52,2.37-6.11,3.89c-1.63-0.68-4.23-1.51-7.49-1.75c4.88-7.61,13.64-9.9,13.72-9.91c0,0,9.66,2.73,13.86,10.06
		c0,0,0.62-0.11,0.86-0.1c0,0-3.85-8.69-13.69-12.46c11.26-8.24,21.92-4.35,22-4.31c0.06,0.03,8.71,7.42,7.25,21.42l0.44,0.42
		C321.12,54.52,311.09,57.27,307.21,58.83 M337.67,15.48L337.67,15.48c0.22,0.16,9.51,8.48,10.06,22.92
		c-11.48-4.17-22.27-1.5-22.27-1.5c-0.27-0.63-3.15-10.99-12.86-19.05C325.6,11.09,337.67,15.48,337.67,15.48 M263.84,15.5
		l-0.02-0.02c0.29-0.09,12.05-4.07,24.7,2.69c-9.71,8.28-12.41,18.75-12.41,18.75l1.29-0.26c7.87-17.64,23.22-20.49,23.36-20.52
		c0.24,0.06,15.53,2.9,23.3,20.52c-13.51-1.67-22.35,6.74-23.05,7.42c-0.06,0-0.1-0.04-0.1-0.04c-0.12,0.04-0.19,0.06-0.26,0.08
		c-0.74-0.72-10.29-9.77-24.72-7.13l0,0h-0.02h0.02L275.89,37c-0.77-0.19-10.93-2.76-22.57,1.64
		C254.03,23.81,263.84,15.5,263.84,15.5 M245.78,48.17c0.05-0.04,10.17-12.13,29.28-10.11c-8.79,11.47-5.39,24.06-5.35,24.17
		c0,0.01-0.03,0.04-0.03,0.04c-0.1,0.06-12.43,3.35-17.93,16.56C240.5,63.2,245.71,48.37,245.78,48.17 M241.42,101
		c-12.3-8.02-14.52-20.77-14.52-20.77h-0.03c0.06-0.29,2.52-12.5,14.58-20.19c2.16,11.98,9.21,19.39,9.84,20.03
		c-0.06,0.1-0.1,0.18-0.13,0.27l0,0v0.01c0.03,0.06,0.03,0.12,0.08,0.2C250.16,81.65,243.41,89.15,241.42,101 M245.88,112.31
		c-0.1-0.17-5.28-14.92,5.83-30.54c5.29,12.79,16.93,16.32,17.91,16.6v0.04c0.05,0.03,0.1,0.1,0.16,0.1
		c-0.06,0.15-3.39,12.55,5.17,23.95C255.97,124.36,245.92,112.4,245.88,112.31 M264,144.76h-0.02c-0.22-0.17-9.44-8.38-10.04-22.72
		c10.83,3.9,20.31,1.84,21.83,1.47c0.09,0.09,0.14,0.16,0.2,0.24l0,0l0,0h0.03c0.07,0.03,0.15,0.03,0.25,0.05
		c0.46,1.62,3.55,11.15,12.62,18.71C275.87,149.22,264,144.76,264,144.76 M300.83,144.37c-0.19-0.06-15.41-2.88-23.24-20.35
		c13.05,1.63,21.76-6.1,23-7.28c0.18,0.07,0.38,0.17,0.58,0.27v0.01c0.06-0.03,0.12-0.05,0.19-0.08c1.95,1.75,10.41,8.56,22.69,7.04
		C316.24,141.49,301,144.31,300.83,144.37 M337.67,144.74h0.02c-0.28,0.13-11.9,4.05-24.5-2.56c8.82-7.6,11.78-16.94,12.2-18.41
		c0.12,0,0.2-0.02,0.31-0.05c0.03-0.08,0.09-0.11,0.15-0.18c1.78,0.45,11.43,2.42,22.33-1.71
		C347.45,136.55,337.67,144.74,337.67,144.74 M355.68,112.3c-0.07,0.1-10.08,12.03-28.98,10.16c8.61-11.48,5.21-23.99,5.21-23.99
		l-0.74,0.62c1.46,14-7.19,21.39-7.25,21.48c0,0-10.49,3.79-21.62-4.08c6.28-3.14,9.84-7.67,11.85-11.71
		c2.3,0.06,10.64-0.09,17.77-6.47h0.04c1.94-9.67-2.44-17.3-3.57-19.05c2.39-3.83,4.31-9.14,3.79-16.04
		c12.72,5.7,14.74,17.01,14.74,17.08c0,0.05-2.02,11.34-14.74,17.08l-0.2,0.96c0,0,12.4-3.23,17.95-16.43
		C360.89,97.45,355.72,112.14,355.68,112.3 M360.01,100.44c-2.04-11.23-8.31-18.47-9.62-19.81c0.06-0.13,0.08-0.22,0.15-0.33l0,0
		c-0.08-0.17-0.15-0.36-0.22-0.53c1.3-1.35,7.81-8.78,9.74-20.34c12.28,8,14.6,20.77,14.6,20.77h0.02
		C374.6,80.5,372.15,92.75,360.01,100.44"/>
	<path class="st1" d="M115.13,263.23c-4.65-0.63-10.65-3-14.93-1c-0.86,0.33-2.98,1.87-3.61,2.53c0.44-0.66,0.44-0.47,0-0.02
		c0.4-0.64,0.88-1.29,1.52-1.94c3.22-3.26,7.89-5.92,12.38-4.94c8.07,1.82,10.68,4.06,13.78,0.19
		C124.28,258.03,121.47,264.18,115.13,263.23"/>
	<path class="st1" d="M514.07,265.78c-4.6-0.68-10.61-3.06-14.86-1.02c-0.88,0.35-3.03,1.85-3.64,2.5c0.44-0.65,0.44-0.45,0-0.03
		c0.37-0.62,0.88-1.27,1.52-1.91c3.24-3.29,7.93-5.95,12.38-4.95c8.05,1.79,10.68,4.06,13.76,0.19
		C523.23,260.56,520.43,266.69,514.07,265.78"/>
	<path class="st1" d="M53.33,271.27c-0.5,1.25-0.8,1.81-0.98,2.02c-3.12,4.01-8.15,6.02-14.97,6c-8.12-0.06-14.5-2.97-19.01-8.63
		c-4.06-5.04-6.09-11.47-6.05-19.13c0.02-6.72,2.1-12.23,6.09-16.27c3.98-4.06,9.39-6.1,16-6.09c5.61,0.04,10.2,1.31,13.71,3.74
		c0.9,0.65,1.65,1.72,2.28,3.28c0.21,0.69,0.43,1.49,0.62,2.27l1-0.03c0.29-1.84,0.5-3.34,0.61-4.42c0.04-0.77,0.04-1.93-0.07-3.52
		v-0.34l-0.35-0.1c-1.12-0.36-2.18-0.63-3.04-0.85c-5.08-1.62-10.14-2.48-15.1-2.51c-7.07-0.04-13.28,2.19-18.41,6.65
		c-5.94,5.18-9.01,12.31-9.05,21.23c-0.06,7.58,2.2,13.85,6.74,18.63c5.34,5.6,13.31,8.49,23.64,8.56c2.89,0.03,5.88-0.23,8.86-0.66
		c2.52-0.42,4.1-0.78,4.82-1.11c0.23-0.09,0.52-0.17,0.84-0.27c0.45-0.09,0.7-0.18,0.88-0.21l0.18-0.07l0.11-0.2
		c0.3-0.72,0.67-1.83,1.07-3.47c0.3-1.87,0.5-3.32,0.57-4.31L53.33,271.27z"/>
	<path class="st1" d="M233.51,280.97c-2.13-2.43-3.38-5.32-3.76-8.55l-4.17-35.5c-0.08-0.96-0.11-1.84-0.11-2.73
		c0.01-1.17,0.3-1.96,0.78-2.4l2.8-1.74l-0.27-0.96c-2.77,0.2-4.57,0.27-5.37,0.27c-0.92,0-2.42-0.14-4.41-0.32l-1.33-0.15
		l0.89,0.99c0.82,0.93,1.24,1.74,1.24,2.46c0,0.56-0.41,2.05-2.31,5.96l-16.6,33.75l-16.22-35.61c-1.22-2.66-1.85-5.06-1.81-7.13
		v-0.59l-0.56,0.07c-1.5,0.22-2.69,0.26-3.59,0.26c-1.13,0-2.87-0.1-5.11-0.3l-1.78-0.15l1.44,1.04c3.56,2.77,4.13,4.05,4.13,4.61
		c0,0.19-0.13,1.01-0.79,4.34l-6.61,33.85c-0.81,4.2-1.22,5.55-1.44,5.94c-0.05,0.16-0.44,0.62-2.22,2.11l-1.22,1.04l1.57-0.12
		c2.22-0.2,3.65-0.27,4.21-0.27c1.09,0,2.54,0.1,4.33,0.32l1.82,0.21l-1.48-1.13c-1.96-1.51-2.12-2.14-2.12-2.31
		c0-2.23,0.19-4.27,0.52-5.96c0.52-2.77,2.64-13.45,6.37-32.09l19.59,42.96l20.43-42.23l4.23,31.81c0.39,3.42,0.49,4.44,0.47,4.7
		c0,0.99-0.49,2.17-1.45,3.53l-0.66,0.92l1.12-0.1c1.97-0.18,3.51-0.27,4.53-0.27c1.15,0,2.63,0.12,4.47,0.32l1.31,0.14
		L233.51,280.97z"/>
	<path class="st1" d="M288.36,277.07c-0.55,0.55-1.11,0.96-1.59,1.22c-1.34,0.71-4.35,1.08-9,1.05l-6.88-0.05l0.16-22.92l7.89,0.04
		c1.97,0,3.66,0.67,5.03,1.93l0.99,0.96l-0.13-1.38c-0.16-1.32-0.23-2.44-0.2-3.29l0.02-5.1l-0.94,1.41
		c-1.02,1.58-2.64,2.34-4.91,2.33l-7.73-0.09l0.1-20.78c1.07-0.01,2.14-0.01,3.2,0c4.49,0.01,8.05,0.19,8.94,0.42
		c1.41,0.72,2.43,1.29,2.94,1.82l1.04,0.97l-0.17-1.41c-0.22-1.43-0.49-2.39-0.88-2.99c-0.83-1.17-1.73-1.76-2.66-1.76
		c-0.56,0-5.03,0-8.68,0.09c-3.51,0.06-5.77,0.1-6.37,0.1c-1.05,0-2.6-0.13-4.58-0.32l-1.77-0.18l1.4,1.09
		c0.94,0.7,1.57,1.51,1.84,2.3c0.26,0.69,0.33,1.97,0.33,3.81l-0.25,38.14c0,3-0.24,4.18-0.43,4.68c-0.05,0.13-0.33,0.64-1.83,1.94
		l-1.18,1.01l1.55-0.12c2.29-0.17,3.85-0.24,4.56-0.24c0.21,0,1.38,0.03,6.89,0.29c4.27,0.2,7.73,0.3,10.36,0.31
		c1.22,0,2.43-1.52,3.76-4.74L288.36,277.07z"/>
	<path class="st1" d="M349.25,276.43c-0.82,0.76-1.5,1.39-1.95,1.78c-1.78,0.98-5.47,1.44-11.02,1.41c-2.29,0-5.11-0.2-8.37-0.52
		l0.27-42.37c0-2.88,0.93-4.85,2.79-6.05l-0.33-0.94c-2.45,0.18-4.22,0.27-5.29,0.25c-0.98,0-2.58-0.11-4.76-0.31l-0.32,0.93
		c1.7,1.1,2.5,3.12,2.5,6.07l-0.26,39.44c-0.02,1.96-0.26,2.81-0.46,3.19c-0.08,0.2-0.47,0.71-2.08,2.2l-1.11,0.95l1.47-0.09
		c2.53-0.17,4.12-0.27,4.84-0.27c2.19,0.03,5.69,0.17,10.4,0.36c4.88,0.23,8.13,0.36,9.95,0.37c1.13,0,2.17-0.76,3.13-2.34
		c0.75-1.76,1.21-2.92,1.43-3.51L349.25,276.43z"/>
	<path class="st1" d="M409.76,276.81c-0.85,0.76-1.53,1.38-1.95,1.8c-1.77,0.96-5.47,1.47-11.02,1.41c-2.32-0.02-5.13-0.2-8.38-0.52
		l0.26-42.41c0.03-2.84,0.93-4.81,2.81-6.03l-0.3-0.93c-2.48,0.16-4.27,0.27-5.33,0.23c-0.98,0-2.56-0.09-4.75-0.32l-0.34,0.97
		c1.68,1.04,2.52,3.1,2.52,6.03l-0.25,39.44c0,1.94-0.29,2.8-0.49,3.19c-0.1,0.2-0.48,0.72-2.08,2.18l-1.08,0.99l1.46-0.1
		c2.53-0.19,4.13-0.28,4.85-0.27c2.16,0,5.67,0.13,10.42,0.37c4.85,0.21,8.1,0.33,9.93,0.35c1.12,0,2.13-0.76,3.1-2.36
		c0.77-1.75,1.22-2.89,1.44-3.5L409.76,276.81z"/>
	<path class="st1" d="M451.09,282.33c-1.48-1.12-2.2-2.9-2.16-5.43l0.25-41.39c0.05-2.07,0.66-3.42,1.94-4.04l-0.25-0.97
		c-1.81,0.19-3.31,0.27-4.36,0.27c-1.02-0.01-2.55-0.1-4.55-0.33l-0.26,0.98c1.44,0.64,2.1,1.98,2.1,4.07l-0.26,41.43
		c-0.02,2.57-0.75,4.28-2.25,5.36l-1.57,1.12l1.92-0.2c2.06-0.22,3.55-0.33,4.58-0.33c1.06,0,2.59,0.14,4.49,0.4l1.88,0.21
		L451.09,282.33z"/>
	<path class="st1" d="M585.4,258.83c-3.55-2.83-7.07-5.67-10.57-8.46c-3.65-3.16-5.49-6.25-5.48-9.12c0-2.23,0.81-4.22,2.38-5.82
		c1.6-1.67,3.54-2.48,5.97-2.44c1.73,0,3.47,0.38,5.13,1.2c1.69,0.79,3.01,1.89,3.83,3.19c0.66,1.55,1.14,2.76,1.42,3.58l1-0.17
		c0.05-1.54,0.08-2.75,0.1-3.55c0-0.79,0.08-1.81,0.22-3.05l0.04-0.4l-0.38-0.12c-0.91-0.32-1.37-0.47-1.57-0.59
		c-8.06-3.43-14.45-2.87-18.54,1.66c-2.34,2.56-3.53,5.73-3.55,9.38c-0.01,3.81,1.92,7.36,5.73,10.61l10.44,7.76
		c3.6,3.19,5.43,6.72,5.4,10.53c0,2.59-1.11,4.73-3.36,6.44c-2.04,1.65-4.18,2.41-6.33,2.41c-3.61-0.01-6.53-0.92-8.66-2.64
		c-1.12-0.94-2.04-2.1-2.73-3.53c-0.29-0.68-0.5-1.35-0.71-1.98l-0.98,0.13c0.06,2.7,0.2,4.7,0.41,6.01
		c0.26,1.45,0.57,2.34,1.05,2.8l0.28,0.32l0.34-0.22c0,0,0.1-0.06,0.42-0.06c0.31,0.03,0.72,0.08,1.19,0.13
		c1.41,0.31,2.79,0.58,4.2,0.91c1.82,0.37,3.56,0.55,5.02,0.55c3.89,0.02,7.23-1.46,9.98-4.32c2.7-2.9,4.11-6.26,4.14-10.03
		C591.25,266.14,589.31,262.42,585.4,258.83"/>
	<path class="st1" d="M536.51,280.29c-0.85-0.79-1.71-2.07-2.52-3.79l-22.42-47.83l-23.21,47.54c-1.24,2.46-3.25,4.56-5.93,6.23
		l0.32,0.94c1.94-0.17,3.7-0.24,5.11-0.24c1.15,0,2.84,0.1,5.01,0.32l1.3,0.13l-0.88-0.98c-1.5-1.67-1.74-2.4-1.74-2.71
		c0-0.97,0.28-2.12,0.82-3.34l3.4-7.4l14.69-31.33l13.46,29.38l0.93,2.1l2.96,7.5c0.54,1.38,0.84,2.63,0.84,3.73
		c0,0.76-0.5,1.52-1.4,2.23l-1.28,1.03l1.67-0.13c2.2-0.19,4.04-0.29,5.36-0.29c1.26,0.02,3.61,0.15,7.05,0.36l0.29-0.93
		C538.23,281.53,536.93,280.71,536.51,280.29"/>
	<path class="st1" d="M136.41,277.78c-0.81-0.81-1.66-2.07-2.5-3.82l-22.43-47.8L88.24,273.7c-1.22,2.44-3.23,4.58-5.89,6.25
		l0.3,0.93c1.96-0.17,3.71-0.27,5.13-0.27c1.14,0.01,2.83,0.12,5,0.34l1.33,0.16l-0.92-1.02c-1.51-1.64-1.73-2.38-1.73-2.66
		c0-1.02,0.28-2.13,0.83-3.35l3.38-7.43l14.68-31.34l13.48,29.41l0.94,2.11l2.92,7.46c0.56,1.41,0.85,2.63,0.8,3.75
		c0,0.77-0.44,1.52-1.32,2.24l-1.32,1.04l1.68-0.14c2.22-0.19,4.01-0.26,5.33-0.26c1.28,0.01,3.63,0.14,7.07,0.34l0.3-0.95
		C138.13,279.02,136.85,278.19,136.41,277.78"/>
	<g>
		<path class="st1" d="M276.3,180.4c-0.66-1.15-2.03-1.79-4.13-1.79l-8.75-0.08l-0.16,28.36c0,1.11,0.22,2.03,0.64,2.7
			c0.05,0.01,0.41,0.4,1.08,1.09c-1.24-0.11-2.34-0.2-3.18-0.2c-0.86,0-1.91,0.05-3.16,0.17c1.2-0.56,1.82-1.81,1.84-3.76
			l0.18-28.36l-8.84-0.07c-1.95-0.01-3.32,0.59-4.07,1.81c0.02-0.49,0.1-1.16,0.27-2.01c0.51-0.91,1.05-1.39,1.69-1.39
			c6.61,0.2,10.73,0.28,12.38,0.28c5.03,0.02,9.07,0,12.12-0.08c0.66-0.06,1.2,0.34,1.7,1.22
			C276.19,178.7,276.34,179.42,276.3,180.4"/>
		<path class="st1" d="M318.65,211.05c-1.02-0.16-1.96-0.23-2.89-0.23c-1.8,0-2.79,0.03-3.09,0.16c0.64-0.56,1.08-1.02,1.2-1.37
			c0.32-0.64,0.51-1.58,0.51-2.87l0.09-13.45l-20.08-0.13l-0.1,13.17c0,1.3,0.04,2.16,0.17,2.6c0.21,0.68,0.69,1.35,1.46,1.96
			c-1.1-0.14-2.12-0.2-3.06-0.23c-0.78,0-1.98,0.08-3.6,0.19c0.8-0.47,1.38-0.99,1.66-1.62c0.33-0.66,0.51-1.64,0.51-3.07
			l0.13-24.37c0.04-1.38-0.01-2.24-0.11-2.62c-0.18-0.77-0.65-1.45-1.4-2c1.27,0.12,2.26,0.2,2.98,0.2c0.72,0,1.63-0.05,2.85-0.2
			c-0.57,0.59-0.95,1.08-1.09,1.51c-0.23,0.58-0.34,1.65-0.38,3.12l-0.03,9.8l20.08,0.14l0.06-9.48c0-1.57-0.06-2.67-0.2-3.28
			c-0.2-0.62-0.58-1.18-1.23-1.68c1.24,0.14,2.17,0.23,2.88,0.23c0.69,0,1.63-0.08,2.87-0.19c-0.69,0.46-1.13,0.98-1.31,1.64
			c-0.08,0.43-0.13,1.54-0.14,3.32l-0.16,24.39c0,1.36,0.1,2.37,0.3,3.02C317.7,210.1,318.06,210.54,318.65,211.05"/>
		<path class="st1" d="M350.08,208.45c-0.83,1.93-1.53,2.9-2.17,2.9c-1.73-0.02-3.97-0.05-6.74-0.2c-2.74-0.14-4.29-0.2-4.47-0.2
			c-0.49,0-1.51,0.06-3.04,0.2c0.8-0.69,1.25-1.15,1.33-1.45c0.18-0.47,0.3-1.51,0.3-3.16l0.14-24.89c0-1.22-0.05-2.08-0.2-2.56
			c-0.23-0.62-0.66-1.18-1.34-1.68c1.31,0.13,2.33,0.21,3.02,0.21c0.39,0,1.8,0,4.16-0.08c2.4-0.03,3.75-0.04,4.11-0.04
			c0.5,0,1,0.32,1.49,1.01c0.19,0.36,0.36,0.93,0.5,1.8c-0.36-0.36-1.04-0.76-2.02-1.26c-0.89-0.23-3.16-0.31-6.79-0.26l-0.12,14.2
			l5.39,0.03c1.58,0.03,2.76-0.53,3.49-1.59v2.14c0,0.57,0.02,1.32,0.11,2.2c-0.93-0.88-2.1-1.35-3.5-1.35l-5.49-0.06l-0.06,15.64
			l4.8,0.01c3.07,0.03,5.1-0.24,6.03-0.7C349.34,209.13,349.69,208.85,350.08,208.45"/>
	</g>
</g>
</svg>
